<?xml version="1.0" standalone="no"?>
<!DOCTYPE svg PUBLIC "-//W3C//DTD SVG 20010904//EN"
 "http://www.w3.org/TR/2001/REC-SVG-20010904/DTD/svg10.dtd">
<svg version="1.0" xmlns="http://www.w3.org/2000/svg"
 width="256.000000pt" height="256.000000pt" viewBox="0 0 256.000000 256.000000"
 preserveAspectRatio="xMidYMid meet">
<metadata>
Created by potrace 1.16, written by Peter Selinger 2001-2019
</metadata>
<g transform="translate(0.000000,256.000000) scale(0.100000,-0.100000)"
fill="#000000" stroke="none">
<path d="M1020 2552 c18 -3 -1 -12 -64 -28 -48 -13 -116 -36 -150 -50 -33 -15
-71 -27 -83 -28 -11 0 -19 -5 -15 -10 3 -5 -2 -6 -12 -3 -9 4 -15 3 -12 -2 7
-11 -101 -74 -114 -66 -5 3 -12 0 -16 -6 -4 -8 -3 -9 4 -5 7 4 12 5 12 3 0 -5
-109 -87 -116 -87 -3 0 -2 6 2 13 5 6 -16 -9 -45 -35 -55 -49 -155 -157 -133
-144 6 4 12 5 12 2 0 -7 -82 -116 -87 -116 -2 0 -1 5 3 12 4 7 3 8 -5 4 -6 -4
-9 -11 -6 -16 8 -13 -55 -121 -66 -114 -5 3 -6 -3 -2 -12 4 -12 3 -15 -5 -10
-8 5 -10 1 -5 -10 3 -10 2 -15 -3 -12 -5 4 -10 -4 -11 -15 0 -12 -17 -65 -36
-117 -19 -52 -38 -115 -42 -140 -7 -39 -9 -42 -15 -20 -4 14 -7 -103 -7 -260
0 -157 3 -274 7 -260 6 22 7 21 14 -15 10 -55 55 -192 78 -238 11 -22 17 -45
14 -53 -4 -10 -2 -12 6 -8 8 5 9 2 5 -10 -4 -9 -3 -15 2 -12 11 7 74 -101 66
-114 -3 -5 0 -12 6 -16 8 -4 9 -3 5 4 -4 7 -5 12 -3 12 5 0 87 -109 87 -116 0
-3 -6 -2 -12 2 -7 5 8 -16 34 -45 49 -55 157 -155 144 -133 -4 6 -5 12 -2 12
7 0 116 -82 116 -87 0 -2 -5 -1 -12 3 -7 4 -8 3 -4 -5 4 -6 11 -9 16 -6 13 8
121 -55 114 -66 -3 -5 3 -6 12 -2 10 3 15 2 12 -3 -4 -5 4 -10 15 -10 12 -1
50 -13 83 -28 34 -14 102 -37 150 -50 63 -16 82 -25 64 -28 -14 -2 103 -4 260
-4 157 -1 274 2 260 6 -22 6 -19 8 20 15 25 4 88 23 140 42 52 19 105 36 117
36 11 1 19 6 15 11 -3 5 2 6 12 3 11 -5 15 -3 10 5 -5 8 -2 9 10 5 11 -5 15
-3 10 4 -4 7 -1 10 7 7 8 -3 26 1 42 9 38 19 34 27 -5 8 -37 -17 -29 -11 77
58 141 91 312 271 390 412 20 36 41 63 46 60 5 -4 6 2 2 11 -4 12 -3 15 5 10
8 -5 10 -1 5 10 -5 13 -3 15 7 9 9 -5 11 -4 6 4 -4 6 4 40 18 76 15 35 37 104
50 152 17 62 25 81 28 63 2 -14 4 103 4 260 0 157 -2 274 -4 260 -3 -18 -12 1
-28 64 -13 48 -36 116 -50 150 -15 33 -27 71 -28 83 0 11 -5 19 -10 15 -5 -3
-6 2 -3 12 4 9 3 15 -2 12 -11 -7 -74 101 -66 114 3 5 0 12 -6 16 -8 4 -9 3
-5 -4 4 -7 5 -12 3 -12 -5 0 -87 109 -87 116 0 3 6 2 13 -2 6 -5 -9 16 -35 45
-49 55 -157 155 -144 134 4 -7 5 -13 2 -13 -7 0 -116 82 -116 87 0 2 5 1 12
-3 7 -4 8 -3 4 5 -4 6 -11 9 -16 6 -13 -8 -121 55 -114 66 3 5 -3 6 -12 2 -12
-4 -15 -3 -10 5 5 8 1 10 -10 5 -13 -5 -15 -3 -9 7 5 9 4 11 -4 6 -6 -4 -40 4
-76 18 -35 15 -104 37 -152 50 -62 17 -81 25 -63 28 14 2 -103 4 -260 4 -157
0 -274 -2 -260 -4z m472 -725 c33 -23 48 -64 48 -133 l0 -54 150 0 150 0 0
-55 0 -55 -50 0 -50 0 0 -376 0 -376 -29 -29 -29 -29 -401 0 -400 0 -28 24
-28 24 -5 383 -5 382 -45 1 c-51 1 -50 0 -50 61 l0 45 149 0 149 0 4 70 c3 60
8 73 32 99 16 17 38 32 50 35 11 2 98 3 191 3 146 -2 174 -5 197 -20z"/>
<path d="M1130 1690 l0 -50 150 0 150 0 0 50 0 50 -150 0 -150 0 0 -50z"/>
<path d="M920 1175 l0 -355 50 0 50 0 0 305 0 305 55 0 55 0 0 -305 0 -305 50
0 50 0 0 305 0 305 50 0 50 0 0 -305 0 -305 50 0 50 0 0 305 0 305 55 0 55 0
0 -305 0 -305 50 0 50 0 0 355 0 355 -360 0 -360 0 0 -355z"/>
</g>
</svg>
